<svg width="85" height="85" viewBox="0 0 85 85" fill="none" xmlns="http://www.w3.org/2000/svg">
<g clip-path="url(#clip0)">
<rect width="85" height="85" fill="#012C38"/>
<path d="M40.191 30.31C42.231 30.31 43.931 30.242 45.291 30.106V31.466C43.0243 32.01 41.2336 33.982 39.919 37.382L23.939 78.59H23.395H22.851L6.25898 35.818C5.17098 33.0073 3.60698 31.5567 1.56698 31.466V30.106C3.38031 30.242 5.80564 30.31 8.84298 30.31C12.7416 30.31 15.643 30.242 17.547 30.106V31.466C15.8243 31.5567 14.5776 31.7833 13.807 32.146C13.0816 32.4633 12.719 33.0753 12.719 33.982C12.719 34.7527 12.991 35.818 13.535 37.178L25.843 69.886L36.927 41.122C37.8336 38.674 38.287 36.8153 38.287 35.546C38.287 34.1407 37.7883 33.1207 36.791 32.486C35.839 31.8513 34.3656 31.5113 32.371 31.466V30.106C34.955 30.242 37.5616 30.31 40.191 30.31Z" fill="#F6F7F9"/>
<path d="M45.7683 69.9561V60.6614H47.3365V69.9561H45.7683ZM46.5715 58.7489C46.2655 58.7489 46.0041 58.6532 45.7874 58.462C45.5834 58.2707 45.4814 58.0285 45.4814 57.7352C45.4814 57.4292 45.5834 57.187 45.7874 57.0085C46.0041 56.8172 46.2655 56.7216 46.5715 56.7216C46.8775 56.7216 47.1325 56.8172 47.3365 57.0085C47.5533 57.187 47.6616 57.4292 47.6616 57.7352C47.6616 58.0285 47.5533 58.2707 47.3365 58.462C47.1325 58.6532 46.8775 58.7489 46.5715 58.7489ZM52.1387 70.1856C51.5394 70.1856 51.1123 70.0071 50.8573 69.6501C50.6023 69.2931 50.4748 68.7704 50.4748 68.0819V56.3391H52.0431V68.1966C52.0431 68.4516 52.0877 68.6301 52.1769 68.7321C52.2662 68.8341 52.3682 68.8851 52.4829 68.8851C52.5339 68.8851 52.5786 68.8851 52.6168 68.8851C52.6678 68.8851 52.7379 68.8724 52.8272 68.8469L53.0376 70.0326C52.9356 70.0836 52.8144 70.1219 52.6742 70.1474C52.5339 70.1729 52.3554 70.1856 52.1387 70.1856ZM55.3494 69.9561V60.6614H56.6499L56.7838 62.0001H56.8412C57.2492 61.5539 57.6891 61.1841 58.1608 60.8909C58.6453 60.5849 59.1681 60.4319 59.7291 60.4319C60.4431 60.4319 60.9977 60.5912 61.3929 60.91C61.8009 61.216 62.1006 61.6495 62.2918 62.2105C62.7763 61.675 63.2608 61.2479 63.7453 60.9291C64.2426 60.5976 64.7781 60.4319 65.3518 60.4319C66.3081 60.4319 67.0157 60.7379 67.4747 61.3499C67.9464 61.9619 68.1823 62.8671 68.1823 64.0656V69.9561H66.6141V64.276C66.6141 63.3962 66.4738 62.7651 66.1933 62.3826C65.9128 61.9874 65.4793 61.7897 64.8928 61.7897C64.1916 61.7897 63.4138 62.2679 62.5596 63.2241V69.9561H60.9913V64.276C60.9913 63.3962 60.8511 62.7651 60.5706 62.3826C60.2901 61.9874 59.8502 61.7897 59.2509 61.7897C58.5497 61.7897 57.7719 62.2679 56.9177 63.2241V69.9561H55.3494ZM73.348 70.1856C72.5703 70.1856 71.92 69.9561 71.3973 69.4971C70.8873 69.0381 70.6323 68.3879 70.6323 67.5464C70.6323 66.5264 71.0849 65.7486 71.9901 65.2131C72.8954 64.6649 74.3425 64.2824 76.3315 64.0656C76.3315 63.7724 76.2996 63.4855 76.2359 63.205C76.1849 62.9245 76.0893 62.6759 75.949 62.4591C75.8088 62.2424 75.6111 62.0702 75.3561 61.9427C75.1139 61.8025 74.8015 61.7324 74.419 61.7324C73.8835 61.7324 73.3799 61.8344 72.9081 62.0384C72.4364 62.2424 72.0156 62.4719 71.6459 62.7269L71.0339 61.6367C71.4674 61.3562 71.9965 61.0885 72.6213 60.8335C73.246 60.5657 73.9345 60.4319 74.6868 60.4319C75.8215 60.4319 76.6439 60.7825 77.1539 61.4837C77.6639 62.1722 77.9189 63.0966 77.9189 64.2569V69.9561H76.6184L76.4845 68.8469H76.4271C75.9809 69.2166 75.5028 69.5354 74.9928 69.8031C74.4828 70.0581 73.9345 70.1856 73.348 70.1856ZM73.807 68.9234C74.2533 68.9234 74.674 68.8214 75.0693 68.6174C75.4645 68.4006 75.8853 68.0882 76.3315 67.6802V65.0984C75.5538 65.2004 74.8971 65.3215 74.3616 65.4617C73.8389 65.602 73.4118 65.7677 73.0803 65.959C72.7615 66.1502 72.5256 66.3734 72.3726 66.6284C72.2324 66.8706 72.1623 67.1384 72.1623 67.4316C72.1623 67.9671 72.3216 68.3496 72.6404 68.5791C72.9591 68.8086 73.348 68.9234 73.807 68.9234Z" fill="#F6F7F9"/>
<path d="M37.8041 78.0765C37.5874 78.0765 37.3855 78.0404 37.1985 77.9681C37.0115 77.8916 36.8479 77.7832 36.7076 77.643C36.5674 77.5027 36.4569 77.3327 36.3761 77.133C36.2996 76.929 36.2614 76.6974 36.2614 76.4381C36.2614 76.1831 36.3018 75.9536 36.3825 75.7496C36.4633 75.5456 36.5695 75.3735 36.7013 75.2332C36.8373 75.093 36.9924 74.9846 37.1666 74.9081C37.3409 74.8316 37.5194 74.7934 37.7021 74.7934C37.9146 74.7934 38.1016 74.8295 38.2631 74.9017C38.4246 74.974 38.5585 75.076 38.6648 75.2077C38.7753 75.3395 38.8581 75.4967 38.9134 75.6795C38.9686 75.8622 38.9963 76.062 38.9963 76.2787C38.9963 76.351 38.992 76.419 38.9835 76.4827C38.9793 76.5465 38.9729 76.5975 38.9644 76.6357H36.9754C37.0094 76.9162 37.1071 77.133 37.2686 77.286C37.4344 77.4347 37.6448 77.5091 37.8998 77.5091C38.0358 77.5091 38.1611 77.49 38.2759 77.4517C38.3949 77.4092 38.5118 77.3519 38.6265 77.2796L38.8751 77.7386C38.7264 77.8364 38.5606 77.9171 38.3779 77.9809C38.1951 78.0446 38.0039 78.0765 37.8041 78.0765ZM36.969 76.1385H38.3588C38.3588 75.8962 38.3056 75.7071 38.1994 75.5711C38.0974 75.4309 37.938 75.3607 37.7213 75.3607C37.5343 75.3607 37.3706 75.4266 37.2304 75.5584C37.0901 75.6901 37.003 75.8835 36.969 76.1385ZM41.2137 78.0765C41.0692 78.0765 40.9226 78.0425 40.7738 77.9745C40.6293 77.9022 40.4912 77.8002 40.3595 77.6685H40.3403L40.2766 78H39.6965V73.4992H40.4296V74.6595L40.4105 75.1822C40.5422 75.0675 40.6846 74.974 40.8376 74.9017C40.9948 74.8295 41.1542 74.7934 41.3157 74.7934C41.5112 74.7934 41.6855 74.8316 41.8385 74.9081C41.9915 74.9804 42.1211 75.0866 42.2273 75.2269C42.3336 75.3629 42.4143 75.5286 42.4696 75.7241C42.5248 75.9196 42.5525 76.1385 42.5525 76.3807C42.5525 76.6485 42.5142 76.8886 42.4377 77.1011C42.3655 77.3094 42.2677 77.4857 42.1445 77.6302C42.0212 77.7747 41.8788 77.8852 41.7173 77.9617C41.5558 78.0383 41.388 78.0765 41.2137 78.0765ZM41.0607 77.4709C41.269 77.4709 41.4432 77.3816 41.5835 77.2031C41.7237 77.0204 41.7938 76.7505 41.7938 76.3935C41.7938 76.079 41.7407 75.8346 41.6345 75.6604C41.5282 75.4861 41.3561 75.399 41.1181 75.399C40.8971 75.399 40.6676 75.5159 40.4296 75.7496V77.2095C40.5401 77.3072 40.6485 77.3752 40.7547 77.4135C40.8652 77.4517 40.9672 77.4709 41.0607 77.4709ZM43.3524 78V73.8307H44.468C45.1055 73.8307 45.6027 74.0029 45.9597 74.3471C46.3167 74.6914 46.4952 75.2077 46.4952 75.8962C46.4952 76.2405 46.4485 76.5444 46.355 76.8079C46.2657 77.0714 46.134 77.2924 45.9597 77.4709C45.7897 77.6451 45.5815 77.7769 45.335 77.8661C45.0927 77.9554 44.8165 78 44.5062 78H43.3524ZM44.0919 77.4007H44.417C44.842 77.4007 45.1671 77.2796 45.3924 77.0374C45.6219 76.7909 45.7366 76.4105 45.7366 75.8962C45.7366 75.3862 45.6219 75.0144 45.3924 74.7806C45.1629 74.5469 44.8377 74.43 44.417 74.43H44.0919V77.4007ZM48.6117 78.0765C48.395 78.0765 48.1931 78.0404 48.0061 77.9681C47.8191 77.8916 47.6555 77.7832 47.5152 77.643C47.375 77.5027 47.2645 77.3327 47.1837 77.133C47.1072 76.929 47.069 76.6974 47.069 76.4381C47.069 76.1831 47.1094 75.9536 47.1901 75.7496C47.2709 75.5456 47.3771 75.3735 47.5089 75.2332C47.6449 75.093 47.8 74.9846 47.9742 74.9081C48.1485 74.8316 48.327 74.7934 48.5097 74.7934C48.7222 74.7934 48.9092 74.8295 49.0707 74.9017C49.2322 74.974 49.3661 75.076 49.4724 75.2077C49.5829 75.3395 49.6657 75.4967 49.721 75.6795C49.7762 75.8622 49.8039 76.062 49.8039 76.2787C49.8039 76.351 49.7996 76.419 49.7911 76.4827C49.7869 76.5465 49.7805 76.5975 49.772 76.6357H47.783C47.817 76.9162 47.9147 77.133 48.0762 77.286C48.242 77.4347 48.4524 77.5091 48.7074 77.5091C48.8434 77.5091 48.9687 77.49 49.0835 77.4517C49.2025 77.4092 49.3194 77.3519 49.4341 77.2796L49.6827 77.7386C49.534 77.8364 49.3682 77.9171 49.1855 77.9809C49.0027 78.0446 48.8115 78.0765 48.6117 78.0765ZM47.7766 76.1385H49.1664C49.1664 75.8962 49.1132 75.7071 49.007 75.5711C48.905 75.4309 48.7456 75.3607 48.5289 75.3607C48.3419 75.3607 48.1782 75.4266 48.038 75.5584C47.8977 75.6901 47.8106 75.8835 47.7766 76.1385ZM51.2053 78L50.1152 74.8699H50.8611L51.3583 76.4955C51.4008 76.6485 51.4433 76.8036 51.4858 76.9609C51.5326 77.1181 51.5772 77.2775 51.6197 77.439H51.6452C51.6919 77.2775 51.7366 77.1181 51.7791 76.9609C51.8216 76.8036 51.8662 76.6485 51.9129 76.4955L52.4102 74.8699H53.1178L52.0532 78H51.2053ZM54.9618 78.0765C54.7451 78.0765 54.5432 78.0404 54.3562 77.9681C54.1692 77.8916 54.0056 77.7832 53.8653 77.643C53.7251 77.5027 53.6146 77.3327 53.5338 77.133C53.4573 76.929 53.4191 76.6974 53.4191 76.4381C53.4191 76.1831 53.4595 75.9536 53.5402 75.7496C53.621 75.5456 53.7272 75.3735 53.859 75.2332C53.995 75.093 54.1501 74.9846 54.3243 74.9081C54.4986 74.8316 54.6771 74.7934 54.8598 74.7934C55.0723 74.7934 55.2593 74.8295 55.4208 74.9017C55.5823 74.974 55.7162 75.076 55.8225 75.2077C55.933 75.3395 56.0158 75.4967 56.0711 75.6795C56.1263 75.8622 56.154 76.062 56.154 76.2787C56.154 76.351 56.1497 76.419 56.1412 76.4827C56.137 76.5465 56.1306 76.5975 56.1221 76.6357H54.1331C54.1671 76.9162 54.2648 77.133 54.4263 77.286C54.5921 77.4347 54.8025 77.5091 55.0575 77.5091C55.1935 77.5091 55.3188 77.49 55.4336 77.4517C55.5526 77.4092 55.6695 77.3519 55.7842 77.2796L56.0328 77.7386C55.8841 77.8364 55.7183 77.9171 55.5356 77.9809C55.3528 78.0446 55.1616 78.0765 54.9618 78.0765ZM54.1267 76.1385H55.5165C55.5165 75.8962 55.4633 75.7071 55.3571 75.5711C55.2551 75.4309 55.0957 75.3607 54.879 75.3607C54.692 75.3607 54.5283 75.4266 54.3881 75.5584C54.2478 75.6901 54.1607 75.8835 54.1267 76.1385ZM57.5682 78.0765C57.3047 78.0765 57.1198 77.9979 57.0135 77.8406C56.9073 77.6834 56.8542 77.4687 56.8542 77.1967V73.4992H57.5873V77.235C57.5873 77.3242 57.6043 77.388 57.6383 77.4262C57.6723 77.4602 57.7084 77.4772 57.7467 77.4772C57.7637 77.4772 57.7785 77.4772 57.7913 77.4772C57.8083 77.4772 57.8317 77.473 57.8614 77.4645L57.957 78.0128C57.8593 78.0553 57.7297 78.0765 57.5682 78.0765ZM59.8663 78.0765C59.6708 78.0765 59.4838 78.0404 59.3053 77.9681C59.1268 77.8959 58.9674 77.7896 58.8271 77.6494C58.6911 77.5091 58.5828 77.337 58.502 77.133C58.4213 76.929 58.3809 76.6974 58.3809 76.4381C58.3809 76.1789 58.4213 75.9472 58.502 75.7432C58.5828 75.5392 58.6911 75.3671 58.8271 75.2269C58.9674 75.0866 59.1268 74.9804 59.3053 74.9081C59.4838 74.8316 59.6708 74.7934 59.8663 74.7934C60.0618 74.7934 60.2488 74.8316 60.4273 74.9081C60.61 74.9804 60.7694 75.0866 60.9054 75.2269C61.0414 75.3671 61.1498 75.5392 61.2305 75.7432C61.3155 75.9472 61.358 76.1789 61.358 76.4381C61.358 76.6974 61.3155 76.929 61.2305 77.133C61.1498 77.337 61.0414 77.5091 60.9054 77.6494C60.7694 77.7896 60.61 77.8959 60.4273 77.9681C60.2488 78.0404 60.0618 78.0765 59.8663 78.0765ZM59.8663 77.4772C60.0958 77.4772 60.2764 77.3837 60.4081 77.1967C60.5399 77.0055 60.6058 76.7526 60.6058 76.4381C60.6058 76.1194 60.5399 75.8665 60.4081 75.6795C60.2764 75.4882 60.0958 75.3926 59.8663 75.3926C59.6368 75.3926 59.4561 75.4882 59.3244 75.6795C59.1969 75.8665 59.1331 76.1194 59.1331 76.4381C59.1331 76.7526 59.1969 77.0055 59.3244 77.1967C59.4561 77.3837 59.6368 77.4772 59.8663 77.4772ZM62.0837 79.2368V74.8699H62.6893L62.7403 75.2014H62.7658C62.8975 75.0909 63.0442 74.9952 63.2057 74.9145C63.3672 74.8337 63.535 74.7934 63.7093 74.7934C63.9048 74.7934 64.0769 74.8316 64.2257 74.9081C64.3787 74.9804 64.5083 75.0866 64.6145 75.2269C64.7208 75.3671 64.8015 75.535 64.8568 75.7305C64.912 75.926 64.9397 76.1449 64.9397 76.3871C64.9397 76.6549 64.9014 76.895 64.8249 77.1075C64.7527 77.3157 64.6549 77.4921 64.5317 77.6366C64.4084 77.7769 64.266 77.8852 64.1045 77.9617C63.943 78.0383 63.7752 78.0765 63.6009 78.0765C63.4649 78.0765 63.3289 78.0468 63.1929 77.9872C63.0569 77.9277 62.9252 77.8427 62.7977 77.7322L62.8168 78.255V79.2368H62.0837ZM63.4479 77.4709C63.6562 77.4709 63.8304 77.3816 63.9707 77.2031C64.1109 77.0204 64.181 76.7505 64.181 76.3935C64.181 76.079 64.1279 75.8346 64.0217 75.6604C63.9154 75.4861 63.7433 75.399 63.5053 75.399C63.2843 75.399 63.0548 75.5159 62.8168 75.7496V77.2095C62.9315 77.3072 63.042 77.3752 63.1483 77.4135C63.2545 77.4517 63.3544 77.4709 63.4479 77.4709ZM65.682 78V74.8699H66.2877L66.3387 75.297H66.3642C66.4959 75.1567 66.6383 75.0377 66.7913 74.94C66.9485 74.8422 67.1249 74.7934 67.3204 74.7934C67.5499 74.7934 67.7327 74.8422 67.8687 74.94C68.0089 75.0377 68.1152 75.1759 68.1874 75.3544C68.3362 75.1929 68.4913 75.059 68.6528 74.9527C68.8143 74.8465 68.9949 74.7934 69.1947 74.7934C69.5262 74.7934 69.7705 74.9017 69.9278 75.1185C70.085 75.331 70.1637 75.637 70.1637 76.0365V78H69.4242V76.1321C69.4242 75.8729 69.3838 75.6901 69.3031 75.5839C69.2265 75.4776 69.1075 75.4245 68.9461 75.4245C68.7506 75.4245 68.5317 75.5541 68.2894 75.8134V78H67.5563V76.1321C67.5563 75.8729 67.5159 75.6901 67.4352 75.5839C67.3587 75.4776 67.2375 75.4245 67.0718 75.4245C66.8763 75.4245 66.6574 75.5541 66.4152 75.8134V78H65.682ZM72.3935 78.0765C72.1767 78.0765 71.9749 78.0404 71.7879 77.9681C71.6009 77.8916 71.4372 77.7832 71.297 77.643C71.1567 77.5027 71.0462 77.3327 70.9655 77.133C70.889 76.929 70.8507 76.6974 70.8507 76.4381C70.8507 76.1831 70.8911 75.9536 70.9719 75.7496C71.0526 75.5456 71.1589 75.3735 71.2906 75.2332C71.4266 75.093 71.5817 74.9846 71.756 74.9081C71.9302 74.8316 72.1087 74.7934 72.2915 74.7934C72.504 74.7934 72.691 74.8295 72.8525 74.9017C73.014 74.974 73.1479 75.076 73.2541 75.2077C73.3646 75.3395 73.4475 75.4967 73.5027 75.6795C73.558 75.8622 73.5856 76.062 73.5856 76.2787C73.5856 76.351 73.5814 76.419 73.5729 76.4827C73.5686 76.5465 73.5622 76.5975 73.5537 76.6357H71.5647C71.5987 76.9162 71.6965 77.133 71.858 77.286C72.0237 77.4347 72.2341 77.5091 72.4891 77.5091C72.6251 77.5091 72.7505 77.49 72.8652 77.4517C72.9842 77.4092 73.1011 77.3519 73.2159 77.2796L73.4645 77.7386C73.3157 77.8364 73.15 77.9171 72.9672 77.9809C72.7845 78.0446 72.5932 78.0765 72.3935 78.0765ZM71.5584 76.1385H72.9481C72.9481 75.8962 72.895 75.7071 72.7887 75.5711C72.6867 75.4309 72.5274 75.3607 72.3106 75.3607C72.1236 75.3607 71.96 75.4266 71.8197 75.5584C71.6795 75.6901 71.5924 75.8835 71.5584 76.1385ZM74.2858 78V74.8699H74.8914L74.9424 75.2906H74.9679C75.1082 75.1546 75.2591 75.0377 75.4206 74.94C75.5863 74.8422 75.7776 74.7934 75.9943 74.7934C76.3301 74.7934 76.5744 74.9017 76.7274 75.1185C76.8804 75.331 76.9569 75.637 76.9569 76.0365V78H76.2238V76.1321C76.2238 75.8729 76.1856 75.6901 76.1091 75.5839C76.0326 75.4776 75.9072 75.4245 75.7329 75.4245C75.5969 75.4245 75.4758 75.4585 75.3696 75.5265C75.2676 75.5902 75.1507 75.6859 75.0189 75.8134V78H74.2858ZM78.9559 78.0765C78.7732 78.0765 78.6181 78.0489 78.4906 77.9936C78.3673 77.9384 78.2653 77.8619 78.1846 77.7641C78.1081 77.6621 78.0507 77.5431 78.0124 77.4071C77.9784 77.2669 77.9614 77.1117 77.9614 76.9417V75.45H77.5152V74.9017L77.9997 74.8699L78.0889 74.0156H78.7009V74.8699H79.4978V75.45H78.7009V76.9417C78.7009 77.3072 78.8476 77.49 79.1408 77.49C79.1961 77.49 79.2513 77.4836 79.3066 77.4709C79.3661 77.4581 79.4192 77.4411 79.4659 77.4199L79.5934 77.9617C79.5084 77.9915 79.4107 78.017 79.3002 78.0383C79.1939 78.0638 79.0792 78.0765 78.9559 78.0765Z" fill="#F6F7F9"/>
<path d="M41.333 54.68C42.353 54.68 43.203 54.646 43.883 54.578V55.258C42.7496 55.53 41.8543 56.516 41.197 58.216L33.207 78.82H32.935H32.663L24.367 57.434C23.823 56.0287 23.041 55.3033 22.021 55.258V54.578C22.9276 54.646 24.1403 54.68 25.659 54.68C27.6083 54.68 29.059 54.646 30.011 54.578V55.258C29.1496 55.3033 28.5263 55.4167 28.141 55.598C27.7783 55.7567 27.597 56.0627 27.597 56.516C27.597 56.9013 27.733 57.434 28.005 58.114L34.159 74.468L39.701 60.086C40.1543 58.862 40.381 57.9327 40.381 57.298C40.381 56.5953 40.1316 56.0853 39.633 55.768C39.157 55.4507 38.4203 55.2807 37.423 55.258V54.578C38.715 54.646 40.0183 54.68 41.333 54.68Z" fill="#F6F7F9"/>
</g>
<defs>
<clipPath id="clip0">
<rect width="85" height="85" fill="white"/>
</clipPath>
</defs>
</svg>
