<svg width="147" height="118" viewBox="0 0 147 118" fill="none" xmlns="http://www.w3.org/2000/svg">
<path d="M143.856 0C144.153 0 144.301 0 144.421 0.0144501C145.446 0.138349 146.208 1.02226 146.18 2.05444C146.177 2.17482 146.155 2.32158 146.111 2.61509L134.308 82.0573C134.274 82.2823 134.257 82.3948 134.233 82.4915C134.027 83.3083 133.331 83.9085 132.493 83.9923C132.394 84.0022 132.28 84.0022 132.052 84.0022H90.0125H47.1876C47.0463 84.0022 46.9756 84.0022 46.9088 84.0067C46.3541 84.0439 45.8399 84.3103 45.4895 84.742C45.4474 84.794 45.4066 84.8517 45.3251 84.9672L27.6903 109.945C27.1521 110.707 26.883 111.088 26.7473 111.219C25.4967 112.427 23.4071 111.574 23.3588 109.836C23.3535 109.647 23.428 109.187 23.5769 108.266L27.0725 86.6461C27.1204 86.3498 27.1444 86.2017 27.1491 86.0804C27.1898 85.0402 26.4258 84.1427 25.3924 84.0169C25.272 84.0022 25.1219 84.0022 24.8217 84.0022H2.28C2.01996 84.0022 1.88993 84.0022 1.78053 83.9901C0.84972 83.8874 0.114841 83.1525 0.0120781 82.2217C0 82.1123 0 81.9822 0 81.7222V2.28C0 2.01995 0 1.88993 0.0120781 1.78053C0.114841 0.84972 0.84972 0.114841 1.78053 0.0120781C1.88993 0 2.01996 0 2.28 0H143.856Z" fill="#025955"/>
<path d="M12.7188 64.7812C12.8125 64.3438 12.8906 63.7812 12.9531 63.0938C13.0156 62.4062 13.0938 61.5 13.1875 60.375C13.3125 59.25 13.4375 57.8594 13.5625 56.2031C13.7188 54.5469 13.9219 52.5312 14.1719 50.1562C14.4219 47.7812 14.7031 45 15.0156 41.8125C15.3594 38.5938 15.7969 34.8594 16.3281 30.6094C16.3594 30.2969 16.5 30.1094 16.75 30.0469C17.0312 29.9844 17.2812 29.9531 17.5 29.9531C17.8438 29.9531 18.125 30.0781 18.3438 30.3281C18.5625 30.5781 18.75 30.8594 18.9062 31.1719C19.0938 31.4844 19.2656 31.8125 19.4219 32.1562C19.5781 32.5 19.75 32.7812 19.9375 33C20.25 33.7188 20.5625 34.5469 20.875 35.4844C21.2188 36.4219 21.5781 37.4219 21.9531 38.4844C22.3281 39.5469 22.7031 40.625 23.0781 41.7188C23.4531 42.7812 23.8281 43.8281 24.2031 44.8594C24.5781 45.8594 24.9219 46.7969 25.2344 47.6719C25.5781 48.5156 25.8906 49.2188 26.1719 49.7812C26.5156 49.75 27 49.625 27.625 49.4062C28.25 49.1562 28.9219 48.9219 29.6406 48.7031C30.3594 48.4844 31.0625 48.3125 31.75 48.1875C32.4375 48.0625 33.0156 48.0625 33.4844 48.1875C33.9531 48.2812 34.25 48.5469 34.375 48.9844C34.5312 49.4219 34.4219 50.1094 34.0469 51.0469C33.8281 51.0469 33.625 51.0156 33.4375 50.9531C33.25 50.8594 33.0625 50.7812 32.875 50.7188C32.6875 50.625 32.4844 50.5469 32.2656 50.4844C32.0781 50.3906 31.8594 50.3438 31.6094 50.3438C31.4531 50.3438 31.0938 50.4375 30.5312 50.625C30 50.7812 29.4219 50.9688 28.7969 51.1875C28.1719 51.375 27.625 51.5781 27.1562 51.7969C26.6875 51.9844 26.4531 52.125 26.4531 52.2188L29.6875 64.9219L28.4688 66.7031C27.9375 65.7969 27.4844 64.7656 27.1094 63.6094C26.7656 62.4219 26.4375 61.25 26.125 60.0938C25.8125 58.9062 25.4844 57.8125 25.1406 56.8125C24.8281 55.7812 24.4219 54.9219 23.9219 54.2344C23.2656 54.5469 22.4844 54.8125 21.5781 55.0312C20.6719 55.25 19.7969 55.5312 18.9531 55.875C18.1094 56.1875 17.375 56.625 16.75 57.1875C16.1562 57.7188 15.7969 58.4531 15.6719 59.3906C15.6094 59.7656 15.5469 60.2656 15.4844 60.8906C15.4531 61.5156 15.4062 62.1094 15.3438 62.6719C15.25 63.3594 15.1719 64.0625 15.1094 64.7812H12.7188ZM18.1094 37.1719L18.0156 37.9688C17.9844 38.5 17.9375 39.125 17.875 39.8438C17.8125 40.5312 17.7344 41.25 17.6406 42C17.5781 42.7188 17.5312 43.3281 17.5 43.8281C17.3438 45.5781 17.1719 47.3125 16.9844 49.0312C16.8281 50.7188 16.75 52.4531 16.75 54.2344C17.3438 54.2344 17.9688 54.1562 18.625 54C19.3125 53.8438 19.9688 53.6406 20.5938 53.3906C21.2188 53.1094 21.7812 52.7812 22.2812 52.4062C22.8125 52 23.2188 51.5469 23.5 51.0469C23.25 49.9531 22.9688 48.8281 22.6562 47.6719C22.375 46.4844 22.0625 45.2969 21.7188 44.1094C21.375 42.8906 21 41.7031 20.5938 40.5469C20.1875 39.3906 19.75 38.2656 19.2812 37.1719C19.25 37.1406 19.1406 37.0781 18.9531 36.9844C18.7656 36.8594 18.4844 36.9219 18.1094 37.1719ZM35.1719 65.2969C35.1719 65.3281 35.5 65.1406 36.1562 64.7344C36.8438 64.3281 37.6406 63.7969 38.5469 63.1406C39.4844 62.4531 40.4375 61.7188 41.4062 60.9375C42.375 60.125 43.1719 59.3594 43.7969 58.6406C44.4219 57.9219 44.75 57.3125 44.7812 56.8125C44.8438 56.2812 44.4219 55.9375 43.5156 55.7812C42.3906 55.625 41.4375 55.6406 40.6562 55.8281C39.9062 56.0156 39.2188 56.2344 38.5938 56.4844C37.9688 56.7344 37.375 56.9688 36.8125 57.1875C36.2812 57.4062 35.6875 57.4844 35.0312 57.4219C33.6562 57.4219 32.7031 57 32.1719 56.1562C31.6719 55.2812 31.4219 54.1094 31.4219 52.6406C31.4219 51.1719 31.75 49.7812 32.4062 48.4688C33.0625 47.125 33.9062 45.9688 34.9375 45C35.9688 44.0312 37.1562 43.2656 38.5 42.7031C39.8438 42.1094 41.2188 41.8125 42.625 41.8125C43.1875 41.8125 43.6719 41.8594 44.0781 41.9531C44.4844 42.0469 44.6875 42.4062 44.6875 43.0312C44.6875 43.4688 44.5 43.8906 44.125 44.2969C43.75 44.6719 43.3281 44.8594 42.8594 44.8594C42.8281 44.8594 42.75 44.8438 42.625 44.8125C42.5 44.75 42.375 44.6719 42.25 44.5781C42.125 44.4844 42 44.4219 41.875 44.3906C41.75 44.3281 41.6719 44.2969 41.6406 44.2969C40.6406 44.0156 39.6719 44.1562 38.7344 44.7188C37.7969 45.2812 36.9531 46.0469 36.2031 47.0156C35.4844 47.9531 34.9062 48.9844 34.4688 50.1094C34.0312 51.2031 33.8125 52.1875 33.8125 53.0625C33.8125 53.4062 33.875 53.6875 34 53.9062C34.1562 54.0938 34.3438 54.2344 34.5625 54.3281C34.8125 54.4219 35.0781 54.4844 35.3594 54.5156C35.6719 54.5156 35.9844 54.5156 36.2969 54.5156C36.9219 54.5156 37.5469 54.4219 38.1719 54.2344C38.8281 54.0469 39.4531 53.8281 40.0469 53.5781C40.6719 53.3281 41.2969 53.1094 41.9219 52.9219C42.5781 52.7344 43.25 52.6406 43.9375 52.6406C44.25 52.6406 44.5938 52.7344 44.9688 52.9219C45.3438 53.0781 45.6875 53.3281 46 53.6719C46.3125 53.9844 46.5781 54.3594 46.7969 54.7969C47.0156 55.2031 47.1406 55.6562 47.1719 56.1562C47.3594 56.5938 47.2969 57.1719 46.9844 57.8906C46.7031 58.6094 46.2656 59.375 45.6719 60.1875C45.0781 61 44.3594 61.8281 43.5156 62.6719C42.6719 63.4844 41.8281 64.2344 40.9844 64.9219C40.1406 65.5781 39.3125 66.1094 38.5 66.5156C37.6875 66.9531 37 67.1562 36.4375 67.125C35.8125 67.125 35.4375 66.9375 35.3125 66.5625C35.2188 66.1875 35.1719 65.7656 35.1719 65.2969ZM62.3594 64.7812C62.2031 63.9688 62.0625 63 61.9375 61.875C61.8438 60.7188 61.7344 59.5625 61.6094 58.4062C61.4844 57.2188 61.3281 56.1094 61.1406 55.0781C60.9844 54.0469 60.7344 53.2031 60.3906 52.5469C58.7969 55.7969 57.3906 58.3594 56.1719 60.2344C54.9531 62.0781 53.875 63.4062 52.9375 64.2188C52.0312 65 51.2656 65.375 50.6406 65.3438C50.0156 65.3125 49.5 65.0312 49.0938 64.5C48.6875 63.9688 48.3906 63.2969 48.2031 62.4844C48.0469 61.6406 47.9375 60.8594 47.875 60.1406C47.875 59.4531 48.0312 58.4844 48.3438 57.2344C48.6562 55.9844 49.0781 54.625 49.6094 53.1562C50.1406 51.6562 50.7656 50.1406 51.4844 48.6094C52.2344 47.0781 53.0312 45.6875 53.875 44.4375C54.7188 43.1875 55.5938 42.1562 56.5 41.3438C57.4062 40.5312 58.3125 40.125 59.2188 40.125C60.5625 39.9062 61.5469 40.2031 62.1719 41.0156C62.8281 41.7969 62.9531 43.125 62.5469 45C62.5469 47.0625 62.625 48.8281 62.7812 50.2969C62.9688 51.7656 63.1562 53.1719 63.3438 54.5156C63.5625 55.8594 63.75 57.2656 63.9062 58.7344C64.0938 60.2031 64.1875 61.9688 64.1875 64.0312C64.1875 64.4062 64.1406 64.7344 64.0469 65.0156C63.9844 65.2656 63.6094 65.3906 62.9219 65.3906C62.8281 65.3906 62.7031 65.3125 62.5469 65.1562C62.4219 65 62.3594 64.875 62.3594 64.7812ZM59.8281 43.8281C59.4844 43.3281 59.0156 43.2812 58.4219 43.6875C57.8281 44.0938 57.2031 44.7656 56.5469 45.7031C55.8906 46.6406 55.2188 47.7656 54.5312 49.0781C53.8438 50.3906 53.2031 51.7188 52.6094 53.0625C52.0156 54.4062 51.5 55.6875 51.0625 56.9062C50.625 58.0938 50.3281 59.0781 50.1719 59.8594C50.1719 60.9844 50.3438 61.625 50.6875 61.7812C51.0312 61.9062 51.4531 61.7188 51.9531 61.2188C52.4531 60.7188 53.0156 60 53.6406 59.0625C54.2969 58.125 54.9219 57.125 55.5156 56.0625C56.1406 55 56.7188 53.9688 57.25 52.9688C57.8125 51.9688 58.25 51.1562 58.5625 50.5312C58.8438 49.875 59.0625 49.2656 59.2188 48.7031C59.375 48.1406 59.5 47.6094 59.5938 47.1094C59.7188 46.5781 59.7812 46.0469 59.7812 45.5156C59.8125 44.9844 59.8281 44.4219 59.8281 43.8281ZM68.5938 65.3906C68.25 61.1719 67.9375 56.9531 67.6562 52.7344C67.4062 48.4844 67.125 44.0781 66.8125 39.5156C66.8125 38.7656 67.2188 38.3906 68.0312 38.3906H68.4062C68.5 38.3906 68.6094 38.5156 68.7344 38.7656C68.8594 39.0156 68.9844 39.4844 69.1094 40.1719C69.2656 40.8281 69.4219 41.8438 69.5781 43.2188C69.7656 44.5625 69.9844 46.3281 70.2344 48.5156C70.4844 50.7031 70.7656 53.4375 71.0781 56.7188C71.7344 54.5938 72.25 52.5312 72.625 50.5312C73 48.5312 73.4844 46.7188 74.0781 45.0938C74.6719 43.4375 75.5 41.9844 76.5625 40.7344C77.6562 39.4844 79.2188 38.5625 81.25 37.9688C82.375 38.1562 83.2812 38.8438 83.9688 40.0312C84.6562 41.1875 85.2031 42.625 85.6094 44.3438C86.0156 46.0625 86.2969 47.9375 86.4531 49.9688C86.6094 51.9688 86.7031 53.8906 86.7344 55.7344C86.7656 57.5781 86.7812 59.2344 86.7812 60.7031C86.7812 62.1406 86.8125 63.1719 86.875 63.7969C86.7812 64.0469 86.6406 64.2656 86.4531 64.4531C86.2656 64.6406 86.0469 64.7812 85.7969 64.875C85.5781 64.9375 85.3594 64.9531 85.1406 64.9219C84.9219 64.8594 84.7188 64.6875 84.5312 64.4062C84.5312 64.0625 84.5 63.3594 84.4375 62.2969C84.375 61.2344 84.2969 60 84.2031 58.5938C84.1094 57.1562 84 55.6406 83.875 54.0469C83.7812 52.4219 83.6875 50.9062 83.5938 49.5C83.5312 48.0625 83.4688 46.8125 83.4062 45.75C83.3438 44.6875 83.2969 43.9844 83.2656 43.6406C82.6094 42.4844 81.9531 41.8281 81.2969 41.6719C80.6719 41.5156 80.0312 41.7188 79.375 42.2812C78.75 42.8438 78.1406 43.7031 77.5469 44.8594C76.9531 46.0156 76.3906 47.3281 75.8594 48.7969C75.3281 50.2344 74.8281 51.75 74.3594 53.3438C73.8906 54.9375 73.4844 56.4844 73.1406 57.9844C72.7969 59.4531 72.5 60.7969 72.25 62.0156C72.0312 63.2031 71.8906 64.125 71.8281 64.7812C71.7344 65 71.5312 65.2188 71.2188 65.4375C70.9375 65.625 70.625 65.7656 70.2812 65.8594C69.9688 65.9531 69.6406 65.9844 69.2969 65.9531C68.9844 65.8906 68.75 65.7031 68.5938 65.3906ZM91.0938 45.9844C90.7812 46.1406 90.4844 46.3125 90.2031 46.5C89.9531 46.6562 89.7031 46.8125 89.4531 46.9688C89.2031 47.0938 88.9531 47.1875 88.7031 47.25C88.4531 47.3125 88.1875 47.3125 87.9062 47.25C87.7188 47.25 87.5625 47.1406 87.4375 46.9219C87.3125 46.6719 87.2188 46.4062 87.1562 46.125C87.0625 45.8125 87 45.5156 86.9688 45.2344C86.9375 44.9219 86.9375 44.6875 86.9688 44.5312L91.4688 41.9531L91.75 29.9531C91.8125 29.5469 92.0625 29.3906 92.5 29.4844C92.9375 29.5469 93.3906 29.6406 93.8594 29.7656C93.9219 29.7656 94.0156 29.7969 94.1406 29.8594C94.2969 29.8906 94.4062 29.9219 94.4688 29.9531C94.4062 30.7969 94.3281 31.7188 94.2344 32.7188C94.1719 33.6875 94.1094 34.6719 94.0469 35.6719C93.9844 36.6406 93.9375 37.5938 93.9062 38.5312C93.9062 39.4688 93.9531 40.3125 94.0469 41.0625L101.078 39.0938C101.203 39.0625 101.297 39.1562 101.359 39.375C101.453 39.5625 101.531 39.7969 101.594 40.0781C101.688 40.3594 101.75 40.6406 101.781 40.9219C101.812 41.2031 101.828 41.3438 101.828 41.3438L93.8594 44.7188C93.8594 45 93.875 45.6719 93.9062 46.7344C93.9688 47.7969 94.0312 49.0625 94.0938 50.5312C94.1562 51.9688 94.2188 53.5312 94.2812 55.2188C94.3438 56.875 94.4062 58.4219 94.4688 59.8594C94.5312 61.2969 94.5781 62.5625 94.6094 63.6562C94.6406 64.7188 94.6562 65.3906 94.6562 65.6719C94.5938 66.6094 94.3125 67.0781 93.8125 67.0781C93.3438 67.0781 92.8281 66.8438 92.2656 66.375L91.0938 45.9844ZM104.078 55.875C103.922 55.9062 103.688 55.9531 103.375 56.0156C103.062 56.0781 102.734 56.0938 102.391 56.0625C102.047 56.0312 101.75 55.9375 101.5 55.7812C101.219 55.625 101.078 55.3594 101.078 54.9844C101.078 54.7656 101.125 54.6094 101.219 54.5156C101.312 54.4219 101.469 54.2812 101.688 54.0938C102.375 53.5312 102.953 52.8125 103.422 51.9375C103.922 51.0312 104.375 50.0781 104.781 49.0781C105.188 48.0469 105.609 47.0312 106.047 46.0312C106.516 45 107.047 44.0781 107.641 43.2656C108.234 42.4531 108.969 41.7969 109.844 41.2969C110.719 40.7969 111.797 40.5625 113.078 40.5938C113.609 40.5938 114.203 40.7188 114.859 40.9688C115.516 41.2188 116.125 41.5625 116.688 42C117.25 42.4062 117.719 42.9062 118.094 43.5C118.469 44.0938 118.656 44.75 118.656 45.4688C118.812 45.7188 118.656 46.0781 118.188 46.5469C117.75 47.0156 117.141 47.5312 116.359 48.0938C115.578 48.625 114.688 49.1875 113.688 49.7812C112.719 50.3438 111.781 50.875 110.875 51.375C109.969 51.875 109.172 52.3125 108.484 52.6875C107.797 53.0625 107.344 53.3438 107.125 53.5312C106.969 53.8438 106.844 54.2031 106.75 54.6094C106.656 55.0156 106.578 55.4062 106.516 55.7812C106.484 56.125 106.453 56.4531 106.422 56.7656C106.422 57.0469 106.422 57.2656 106.422 57.4219C106.422 58.0156 106.391 58.6719 106.328 59.3906C106.297 60.1094 106.328 60.7969 106.422 61.4531C106.547 62.0781 106.812 62.6094 107.219 63.0469C107.625 63.4531 108.312 63.6562 109.281 63.6562C110.312 63.6562 111.281 63.4062 112.188 62.9062C113.094 62.375 113.938 61.7344 114.719 60.9844C115.5 60.2344 116.203 59.4219 116.828 58.5469C117.484 57.6719 118.062 56.8594 118.562 56.1094C119.094 55.3281 119.562 54.6875 119.969 54.1875C120.375 53.6875 120.719 53.4375 121 53.4375C121.312 53.4375 121.641 53.5 121.984 53.625C122.359 53.7188 122.547 53.9688 122.547 54.375C122.547 54.9375 122.312 55.6094 121.844 56.3906C121.406 57.1719 120.812 58 120.062 58.875C119.344 59.75 118.5 60.625 117.531 61.5C116.594 62.3438 115.641 63.1094 114.672 63.7969C113.703 64.4531 112.75 65 111.812 65.4375C110.875 65.8438 110.047 66.0469 109.328 66.0469C107.922 66.0469 106.859 65.7031 106.141 65.0156C105.422 64.3281 104.906 63.4688 104.594 62.4375C104.312 61.4062 104.156 60.3125 104.125 59.1562C104.125 57.9688 104.109 56.875 104.078 55.875ZM112.703 43.2188C112.172 43.2188 111.609 43.4844 111.016 44.0156C110.422 44.5156 109.859 45.1406 109.328 45.8906C108.828 46.6094 108.406 47.3594 108.062 48.1406C107.75 48.8906 107.594 49.5156 107.594 50.0156C108.062 50.0156 108.734 49.8438 109.609 49.5C110.516 49.125 111.406 48.6719 112.281 48.1406C113.156 47.6094 113.922 47.0469 114.578 46.4531C115.234 45.8594 115.562 45.2969 115.562 44.7656C115.562 44.4844 115.453 44.25 115.234 44.0625C115.016 43.875 114.75 43.7188 114.438 43.5938C114.156 43.4688 113.859 43.375 113.547 43.3125C113.234 43.25 112.953 43.2188 112.703 43.2188Z" fill="#F7F7F7"/>
</svg>
