<svg width="147" height="118" viewBox="0 0 147 118" fill="none" xmlns="http://www.w3.org/2000/svg">
<path d="M144.356 0C144.653 0 144.801 0 144.921 0.0144501C145.946 0.138349 146.708 1.02226 146.68 2.05444C146.677 2.17482 146.655 2.32158 146.611 2.61509L134.808 82.0573C134.774 82.2823 134.757 82.3948 134.733 82.4915C134.527 83.3083 133.831 83.9085 132.993 83.9923C132.894 84.0022 132.78 84.0022 132.552 84.0022H90.5125H47.6876C47.5463 84.0022 47.4756 84.0022 47.4088 84.0067C46.8541 84.0439 46.3399 84.3103 45.9895 84.742C45.9474 84.794 45.9066 84.8517 45.8251 84.9672L28.1903 109.945C27.6521 110.707 27.383 111.088 27.2473 111.219C25.9967 112.427 23.9071 111.574 23.8588 109.836C23.8535 109.647 23.928 109.187 24.0769 108.266L27.5725 86.6461C27.6204 86.3498 27.6444 86.2017 27.6491 86.0804C27.6898 85.0402 26.9258 84.1427 25.8924 84.0169C25.772 84.0022 25.6219 84.0022 25.3217 84.0022H2.78C2.51996 84.0022 2.38993 84.0022 2.28053 83.9901C1.34972 83.8874 0.614841 83.1525 0.512078 82.2217C0.5 82.1123 0.5 81.9822 0.5 81.7222V2.28C0.5 2.01995 0.5 1.88993 0.512078 1.78053C0.614841 0.84972 1.34972 0.114841 2.28053 0.0120781C2.38993 0 2.51996 0 2.78 0H144.356Z" fill="#DB7B40"/>
<path d="M13.2188 64.7812C13.3125 64.3438 13.3906 63.7812 13.4531 63.0938C13.5156 62.4062 13.5938 61.5 13.6875 60.375C13.8125 59.25 13.9375 57.8594 14.0625 56.2031C14.2188 54.5469 14.4219 52.5312 14.6719 50.1562C14.9219 47.7812 15.2031 45 15.5156 41.8125C15.8594 38.5938 16.2969 34.8594 16.8281 30.6094C16.8594 30.2969 17 30.1094 17.25 30.0469C17.5312 29.9844 17.7812 29.9531 18 29.9531C18.3438 29.9531 18.625 30.0781 18.8438 30.3281C19.0625 30.5781 19.25 30.8594 19.4062 31.1719C19.5938 31.4844 19.7656 31.8125 19.9219 32.1562C20.0781 32.5 20.25 32.7812 20.4375 33C20.75 33.7188 21.0625 34.5469 21.375 35.4844C21.7188 36.4219 22.0781 37.4219 22.4531 38.4844C22.8281 39.5469 23.2031 40.625 23.5781 41.7188C23.9531 42.7812 24.3281 43.8281 24.7031 44.8594C25.0781 45.8594 25.4219 46.7969 25.7344 47.6719C26.0781 48.5156 26.3906 49.2188 26.6719 49.7812C27.0156 49.75 27.5 49.625 28.125 49.4062C28.75 49.1562 29.4219 48.9219 30.1406 48.7031C30.8594 48.4844 31.5625 48.3125 32.25 48.1875C32.9375 48.0625 33.5156 48.0625 33.9844 48.1875C34.4531 48.2812 34.75 48.5469 34.875 48.9844C35.0312 49.4219 34.9219 50.1094 34.5469 51.0469C34.3281 51.0469 34.125 51.0156 33.9375 50.9531C33.75 50.8594 33.5625 50.7812 33.375 50.7188C33.1875 50.625 32.9844 50.5469 32.7656 50.4844C32.5781 50.3906 32.3594 50.3438 32.1094 50.3438C31.9531 50.3438 31.5938 50.4375 31.0312 50.625C30.5 50.7812 29.9219 50.9688 29.2969 51.1875C28.6719 51.375 28.125 51.5781 27.6562 51.7969C27.1875 51.9844 26.9531 52.125 26.9531 52.2188L30.1875 64.9219L28.9688 66.7031C28.4375 65.7969 27.9844 64.7656 27.6094 63.6094C27.2656 62.4219 26.9375 61.25 26.625 60.0938C26.3125 58.9062 25.9844 57.8125 25.6406 56.8125C25.3281 55.7812 24.9219 54.9219 24.4219 54.2344C23.7656 54.5469 22.9844 54.8125 22.0781 55.0312C21.1719 55.25 20.2969 55.5312 19.4531 55.875C18.6094 56.1875 17.875 56.625 17.25 57.1875C16.6562 57.7188 16.2969 58.4531 16.1719 59.3906C16.1094 59.7656 16.0469 60.2656 15.9844 60.8906C15.9531 61.5156 15.9062 62.1094 15.8438 62.6719C15.75 63.3594 15.6719 64.0625 15.6094 64.7812H13.2188ZM18.6094 37.1719L18.5156 37.9688C18.4844 38.5 18.4375 39.125 18.375 39.8438C18.3125 40.5312 18.2344 41.25 18.1406 42C18.0781 42.7188 18.0312 43.3281 18 43.8281C17.8438 45.5781 17.6719 47.3125 17.4844 49.0312C17.3281 50.7188 17.25 52.4531 17.25 54.2344C17.8438 54.2344 18.4688 54.1562 19.125 54C19.8125 53.8438 20.4688 53.6406 21.0938 53.3906C21.7188 53.1094 22.2812 52.7812 22.7812 52.4062C23.3125 52 23.7188 51.5469 24 51.0469C23.75 49.9531 23.4688 48.8281 23.1562 47.6719C22.875 46.4844 22.5625 45.2969 22.2188 44.1094C21.875 42.8906 21.5 41.7031 21.0938 40.5469C20.6875 39.3906 20.25 38.2656 19.7812 37.1719C19.75 37.1406 19.6406 37.0781 19.4531 36.9844C19.2656 36.8594 18.9844 36.9219 18.6094 37.1719ZM35.6719 65.2969C35.6719 65.3281 36 65.1406 36.6562 64.7344C37.3438 64.3281 38.1406 63.7969 39.0469 63.1406C39.9844 62.4531 40.9375 61.7188 41.9062 60.9375C42.875 60.125 43.6719 59.3594 44.2969 58.6406C44.9219 57.9219 45.25 57.3125 45.2812 56.8125C45.3438 56.2812 44.9219 55.9375 44.0156 55.7812C42.8906 55.625 41.9375 55.6406 41.1562 55.8281C40.4062 56.0156 39.7188 56.2344 39.0938 56.4844C38.4688 56.7344 37.875 56.9688 37.3125 57.1875C36.7812 57.4062 36.1875 57.4844 35.5312 57.4219C34.1562 57.4219 33.2031 57 32.6719 56.1562C32.1719 55.2812 31.9219 54.1094 31.9219 52.6406C31.9219 51.1719 32.25 49.7812 32.9062 48.4688C33.5625 47.125 34.4062 45.9688 35.4375 45C36.4688 44.0312 37.6562 43.2656 39 42.7031C40.3438 42.1094 41.7188 41.8125 43.125 41.8125C43.6875 41.8125 44.1719 41.8594 44.5781 41.9531C44.9844 42.0469 45.1875 42.4062 45.1875 43.0312C45.1875 43.4688 45 43.8906 44.625 44.2969C44.25 44.6719 43.8281 44.8594 43.3594 44.8594C43.3281 44.8594 43.25 44.8438 43.125 44.8125C43 44.75 42.875 44.6719 42.75 44.5781C42.625 44.4844 42.5 44.4219 42.375 44.3906C42.25 44.3281 42.1719 44.2969 42.1406 44.2969C41.1406 44.0156 40.1719 44.1562 39.2344 44.7188C38.2969 45.2812 37.4531 46.0469 36.7031 47.0156C35.9844 47.9531 35.4062 48.9844 34.9688 50.1094C34.5312 51.2031 34.3125 52.1875 34.3125 53.0625C34.3125 53.4062 34.375 53.6875 34.5 53.9062C34.6562 54.0938 34.8438 54.2344 35.0625 54.3281C35.3125 54.4219 35.5781 54.4844 35.8594 54.5156C36.1719 54.5156 36.4844 54.5156 36.7969 54.5156C37.4219 54.5156 38.0469 54.4219 38.6719 54.2344C39.3281 54.0469 39.9531 53.8281 40.5469 53.5781C41.1719 53.3281 41.7969 53.1094 42.4219 52.9219C43.0781 52.7344 43.75 52.6406 44.4375 52.6406C44.75 52.6406 45.0938 52.7344 45.4688 52.9219C45.8438 53.0781 46.1875 53.3281 46.5 53.6719C46.8125 53.9844 47.0781 54.3594 47.2969 54.7969C47.5156 55.2031 47.6406 55.6562 47.6719 56.1562C47.8594 56.5938 47.7969 57.1719 47.4844 57.8906C47.2031 58.6094 46.7656 59.375 46.1719 60.1875C45.5781 61 44.8594 61.8281 44.0156 62.6719C43.1719 63.4844 42.3281 64.2344 41.4844 64.9219C40.6406 65.5781 39.8125 66.1094 39 66.5156C38.1875 66.9531 37.5 67.1562 36.9375 67.125C36.3125 67.125 35.9375 66.9375 35.8125 66.5625C35.7188 66.1875 35.6719 65.7656 35.6719 65.2969ZM62.8594 64.7812C62.7031 63.9688 62.5625 63 62.4375 61.875C62.3438 60.7188 62.2344 59.5625 62.1094 58.4062C61.9844 57.2188 61.8281 56.1094 61.6406 55.0781C61.4844 54.0469 61.2344 53.2031 60.8906 52.5469C59.2969 55.7969 57.8906 58.3594 56.6719 60.2344C55.4531 62.0781 54.375 63.4062 53.4375 64.2188C52.5312 65 51.7656 65.375 51.1406 65.3438C50.5156 65.3125 50 65.0312 49.5938 64.5C49.1875 63.9688 48.8906 63.2969 48.7031 62.4844C48.5469 61.6406 48.4375 60.8594 48.375 60.1406C48.375 59.4531 48.5312 58.4844 48.8438 57.2344C49.1562 55.9844 49.5781 54.625 50.1094 53.1562C50.6406 51.6562 51.2656 50.1406 51.9844 48.6094C52.7344 47.0781 53.5312 45.6875 54.375 44.4375C55.2188 43.1875 56.0938 42.1562 57 41.3438C57.9062 40.5312 58.8125 40.125 59.7188 40.125C61.0625 39.9062 62.0469 40.2031 62.6719 41.0156C63.3281 41.7969 63.4531 43.125 63.0469 45C63.0469 47.0625 63.125 48.8281 63.2812 50.2969C63.4688 51.7656 63.6562 53.1719 63.8438 54.5156C64.0625 55.8594 64.25 57.2656 64.4062 58.7344C64.5938 60.2031 64.6875 61.9688 64.6875 64.0312C64.6875 64.4062 64.6406 64.7344 64.5469 65.0156C64.4844 65.2656 64.1094 65.3906 63.4219 65.3906C63.3281 65.3906 63.2031 65.3125 63.0469 65.1562C62.9219 65 62.8594 64.875 62.8594 64.7812ZM60.3281 43.8281C59.9844 43.3281 59.5156 43.2812 58.9219 43.6875C58.3281 44.0938 57.7031 44.7656 57.0469 45.7031C56.3906 46.6406 55.7188 47.7656 55.0312 49.0781C54.3438 50.3906 53.7031 51.7188 53.1094 53.0625C52.5156 54.4062 52 55.6875 51.5625 56.9062C51.125 58.0938 50.8281 59.0781 50.6719 59.8594C50.6719 60.9844 50.8438 61.625 51.1875 61.7812C51.5312 61.9062 51.9531 61.7188 52.4531 61.2188C52.9531 60.7188 53.5156 60 54.1406 59.0625C54.7969 58.125 55.4219 57.125 56.0156 56.0625C56.6406 55 57.2188 53.9688 57.75 52.9688C58.3125 51.9688 58.75 51.1562 59.0625 50.5312C59.3438 49.875 59.5625 49.2656 59.7188 48.7031C59.875 48.1406 60 47.6094 60.0938 47.1094C60.2188 46.5781 60.2812 46.0469 60.2812 45.5156C60.3125 44.9844 60.3281 44.4219 60.3281 43.8281ZM69.0938 65.3906C68.75 61.1719 68.4375 56.9531 68.1562 52.7344C67.9062 48.4844 67.625 44.0781 67.3125 39.5156C67.3125 38.7656 67.7188 38.3906 68.5312 38.3906H68.9062C69 38.3906 69.1094 38.5156 69.2344 38.7656C69.3594 39.0156 69.4844 39.4844 69.6094 40.1719C69.7656 40.8281 69.9219 41.8438 70.0781 43.2188C70.2656 44.5625 70.4844 46.3281 70.7344 48.5156C70.9844 50.7031 71.2656 53.4375 71.5781 56.7188C72.2344 54.5938 72.75 52.5312 73.125 50.5312C73.5 48.5312 73.9844 46.7188 74.5781 45.0938C75.1719 43.4375 76 41.9844 77.0625 40.7344C78.1562 39.4844 79.7188 38.5625 81.75 37.9688C82.875 38.1562 83.7812 38.8438 84.4688 40.0312C85.1562 41.1875 85.7031 42.625 86.1094 44.3438C86.5156 46.0625 86.7969 47.9375 86.9531 49.9688C87.1094 51.9688 87.2031 53.8906 87.2344 55.7344C87.2656 57.5781 87.2812 59.2344 87.2812 60.7031C87.2812 62.1406 87.3125 63.1719 87.375 63.7969C87.2812 64.0469 87.1406 64.2656 86.9531 64.4531C86.7656 64.6406 86.5469 64.7812 86.2969 64.875C86.0781 64.9375 85.8594 64.9531 85.6406 64.9219C85.4219 64.8594 85.2188 64.6875 85.0312 64.4062C85.0312 64.0625 85 63.3594 84.9375 62.2969C84.875 61.2344 84.7969 60 84.7031 58.5938C84.6094 57.1562 84.5 55.6406 84.375 54.0469C84.2812 52.4219 84.1875 50.9062 84.0938 49.5C84.0312 48.0625 83.9688 46.8125 83.9062 45.75C83.8438 44.6875 83.7969 43.9844 83.7656 43.6406C83.1094 42.4844 82.4531 41.8281 81.7969 41.6719C81.1719 41.5156 80.5312 41.7188 79.875 42.2812C79.25 42.8438 78.6406 43.7031 78.0469 44.8594C77.4531 46.0156 76.8906 47.3281 76.3594 48.7969C75.8281 50.2344 75.3281 51.75 74.8594 53.3438C74.3906 54.9375 73.9844 56.4844 73.6406 57.9844C73.2969 59.4531 73 60.7969 72.75 62.0156C72.5312 63.2031 72.3906 64.125 72.3281 64.7812C72.2344 65 72.0312 65.2188 71.7188 65.4375C71.4375 65.625 71.125 65.7656 70.7812 65.8594C70.4688 65.9531 70.1406 65.9844 69.7969 65.9531C69.4844 65.8906 69.25 65.7031 69.0938 65.3906ZM91.5938 45.9844C91.2812 46.1406 90.9844 46.3125 90.7031 46.5C90.4531 46.6562 90.2031 46.8125 89.9531 46.9688C89.7031 47.0938 89.4531 47.1875 89.2031 47.25C88.9531 47.3125 88.6875 47.3125 88.4062 47.25C88.2188 47.25 88.0625 47.1406 87.9375 46.9219C87.8125 46.6719 87.7188 46.4062 87.6562 46.125C87.5625 45.8125 87.5 45.5156 87.4688 45.2344C87.4375 44.9219 87.4375 44.6875 87.4688 44.5312L91.9688 41.9531L92.25 29.9531C92.3125 29.5469 92.5625 29.3906 93 29.4844C93.4375 29.5469 93.8906 29.6406 94.3594 29.7656C94.4219 29.7656 94.5156 29.7969 94.6406 29.8594C94.7969 29.8906 94.9062 29.9219 94.9688 29.9531C94.9062 30.7969 94.8281 31.7188 94.7344 32.7188C94.6719 33.6875 94.6094 34.6719 94.5469 35.6719C94.4844 36.6406 94.4375 37.5938 94.4062 38.5312C94.4062 39.4688 94.4531 40.3125 94.5469 41.0625L101.578 39.0938C101.703 39.0625 101.797 39.1562 101.859 39.375C101.953 39.5625 102.031 39.7969 102.094 40.0781C102.188 40.3594 102.25 40.6406 102.281 40.9219C102.312 41.2031 102.328 41.3438 102.328 41.3438L94.3594 44.7188C94.3594 45 94.375 45.6719 94.4062 46.7344C94.4688 47.7969 94.5312 49.0625 94.5938 50.5312C94.6562 51.9688 94.7188 53.5312 94.7812 55.2188C94.8438 56.875 94.9062 58.4219 94.9688 59.8594C95.0312 61.2969 95.0781 62.5625 95.1094 63.6562C95.1406 64.7188 95.1562 65.3906 95.1562 65.6719C95.0938 66.6094 94.8125 67.0781 94.3125 67.0781C93.8438 67.0781 93.3281 66.8438 92.7656 66.375L91.5938 45.9844ZM104.578 55.875C104.422 55.9062 104.188 55.9531 103.875 56.0156C103.562 56.0781 103.234 56.0938 102.891 56.0625C102.547 56.0312 102.25 55.9375 102 55.7812C101.719 55.625 101.578 55.3594 101.578 54.9844C101.578 54.7656 101.625 54.6094 101.719 54.5156C101.812 54.4219 101.969 54.2812 102.188 54.0938C102.875 53.5312 103.453 52.8125 103.922 51.9375C104.422 51.0312 104.875 50.0781 105.281 49.0781C105.688 48.0469 106.109 47.0312 106.547 46.0312C107.016 45 107.547 44.0781 108.141 43.2656C108.734 42.4531 109.469 41.7969 110.344 41.2969C111.219 40.7969 112.297 40.5625 113.578 40.5938C114.109 40.5938 114.703 40.7188 115.359 40.9688C116.016 41.2188 116.625 41.5625 117.188 42C117.75 42.4062 118.219 42.9062 118.594 43.5C118.969 44.0938 119.156 44.75 119.156 45.4688C119.312 45.7188 119.156 46.0781 118.688 46.5469C118.25 47.0156 117.641 47.5312 116.859 48.0938C116.078 48.625 115.188 49.1875 114.188 49.7812C113.219 50.3438 112.281 50.875 111.375 51.375C110.469 51.875 109.672 52.3125 108.984 52.6875C108.297 53.0625 107.844 53.3438 107.625 53.5312C107.469 53.8438 107.344 54.2031 107.25 54.6094C107.156 55.0156 107.078 55.4062 107.016 55.7812C106.984 56.125 106.953 56.4531 106.922 56.7656C106.922 57.0469 106.922 57.2656 106.922 57.4219C106.922 58.0156 106.891 58.6719 106.828 59.3906C106.797 60.1094 106.828 60.7969 106.922 61.4531C107.047 62.0781 107.312 62.6094 107.719 63.0469C108.125 63.4531 108.812 63.6562 109.781 63.6562C110.812 63.6562 111.781 63.4062 112.688 62.9062C113.594 62.375 114.438 61.7344 115.219 60.9844C116 60.2344 116.703 59.4219 117.328 58.5469C117.984 57.6719 118.562 56.8594 119.062 56.1094C119.594 55.3281 120.062 54.6875 120.469 54.1875C120.875 53.6875 121.219 53.4375 121.5 53.4375C121.812 53.4375 122.141 53.5 122.484 53.625C122.859 53.7188 123.047 53.9688 123.047 54.375C123.047 54.9375 122.812 55.6094 122.344 56.3906C121.906 57.1719 121.312 58 120.562 58.875C119.844 59.75 119 60.625 118.031 61.5C117.094 62.3438 116.141 63.1094 115.172 63.7969C114.203 64.4531 113.25 65 112.312 65.4375C111.375 65.8438 110.547 66.0469 109.828 66.0469C108.422 66.0469 107.359 65.7031 106.641 65.0156C105.922 64.3281 105.406 63.4688 105.094 62.4375C104.812 61.4062 104.656 60.3125 104.625 59.1562C104.625 57.9688 104.609 56.875 104.578 55.875ZM113.203 43.2188C112.672 43.2188 112.109 43.4844 111.516 44.0156C110.922 44.5156 110.359 45.1406 109.828 45.8906C109.328 46.6094 108.906 47.3594 108.562 48.1406C108.25 48.8906 108.094 49.5156 108.094 50.0156C108.562 50.0156 109.234 49.8438 110.109 49.5C111.016 49.125 111.906 48.6719 112.781 48.1406C113.656 47.6094 114.422 47.0469 115.078 46.4531C115.734 45.8594 116.062 45.2969 116.062 44.7656C116.062 44.4844 115.953 44.25 115.734 44.0625C115.516 43.875 115.25 43.7188 114.938 43.5938C114.656 43.4688 114.359 43.375 114.047 43.3125C113.734 43.25 113.453 43.2188 113.203 43.2188Z" fill="white"/>
</svg>
